<?xml version="1.0" encoding="utf-8"?>
<!-- Generator: Adobe Illustrator 21.1.0, SVG Export Plug-In . SVG Version: 6.00 Build 0)  -->
<svg version="1.1" id="Ebene_1" xmlns="http://www.w3.org/2000/svg" xmlns:xlink="http://www.w3.org/1999/xlink" x="0px" y="0px"
	 viewBox="0 0 283.5 283.5" style="enable-background:new 0 0 283.5 283.5;" xml:space="preserve">
<style type="text/css">
	.st0{fill:#E08130;}
	.st1{fill:#FFFFFF;}
</style>
<rect class="st0" width="283.5" height="283.5"/>
<path class="st1" d="M245.8,139.4c0,7.8-2.7,10.8-8.9,10.8c-6.2,0-8.9-3-8.9-10.8v-5c0-7.8,2.7-10.7,8.9-10.7
	c6.2,0,8.9,2.9,8.9,10.7V139.4z M255.3,139.4v-5c0-12.8-6.5-18.9-18.4-18.9c-11.8,0-18.4,6.1-18.4,18.9v5c0,12.9,6.5,18.9,18.4,18.9
	C248.8,158.3,255.3,152.2,255.3,139.4 M213.8,157.2v-6.5c-1.2,0.1-4,0.3-6.1,0.3c-3.5,0-3.8-0.7-3.8-4.5v-22.3h9.9v-7.7h-9.9v-10.3
	l-17.1,18l7.6,0v22.4c0,8.5,3.2,11.7,11.2,11.7C209.2,158.3,212.7,157.4,213.8,157.2 M173.4,139.4c0,7.8-2.7,10.8-8.9,10.8
	c-6.2,0-8.9-3-8.9-10.8v-5c0-7.8,2.7-10.7,8.9-10.7c6.2,0,8.9,2.9,8.9,10.7V139.4z M182.9,139.4v-5c0-12.8-6.5-18.9-18.4-18.9
	c-11.8,0-18.3,6.1-18.3,18.9v5c0,12.9,6.5,18.9,18.3,18.9C176.4,158.3,182.9,152.2,182.9,139.4 M140.7,156.8v-7.2
	c-5.1,0.4-8.7,0.6-10.9,0.6c-5.9,0-9.2-2-9.2-10.8v-5.1c0-8.8,3.3-10.7,9.2-10.7c2.2,0,5.8,0.2,10.9,0.6v-7.2
	c-1.9-0.6-6.4-1.5-12.6-1.5c-11.7,0-17.1,6.4-17.1,18.8v5.1c0,12.2,5.4,18.9,17.1,18.9C134.3,158.3,138.8,157.3,140.7,156.8
	 M94.2,139.4c0,7.8-2.7,10.8-8.9,10.8c-6.2,0-8.9-3-8.9-10.8v-5c0-7.8,2.7-10.7,8.9-10.7c6.2,0,8.9,2.9,8.9,10.7V139.4z
	 M103.6,139.4v-5c0-12.8-6.5-18.9-18.4-18.9c-11.8,0-18.3,6.1-18.3,18.9v5c0,12.9,6.5,18.9,18.3,18.9
	C97.1,158.3,103.6,152.2,103.6,139.4 M60.5,146c-0.1-6.7-3.1-9.5-11.8-13l-3.3-1.3c-5-2-6.4-2.7-6.4-5.3c0-2.9,2.1-3.3,7-3.3
	c3.5,0,8,0.3,12.6,0.7v-6.6c-2-0.7-8.1-1.6-12.7-1.6c-10.8,0-16.3,2.9-16.3,11.1c0,6.3,3.5,9.8,11.2,12.8l3.1,1.2
	c6,2.4,7.2,3.1,7.2,5.9c0,2.9-1.6,4.3-7.5,4.3c-5.2,0-11.3-0.8-13.4-0.9v6.8c1.8,0.6,8.2,1.6,13.9,1.6
	C55.4,158.2,60.5,153.6,60.5,146"/>
</svg>
